<?xml version="1.0" standalone="no"?>
<!DOCTYPE svg PUBLIC "-//W3C//DTD SVG 20010904//EN"
 "http://www.w3.org/TR/2001/REC-SVG-20010904/DTD/svg10.dtd">
<svg version="1.0" xmlns="http://www.w3.org/2000/svg"
 width="512.000000pt" height="512.000000pt" viewBox="0 0 512.000000 512.000000"
 preserveAspectRatio="xMidYMid meet">

<g transform="translate(0.000000,512.000000) scale(0.100000,-0.100000)"
fill="#000000" stroke="none">
<path d="M2035 4944 c-243 -38 -395 -103 -509 -218 -40 -40 -85 -98 -104 -132
l-32 -62 -77 -6 c-389 -33 -714 -97 -861 -169 -132 -64 -168 -163 -93 -250 78
-88 330 -160 730 -208 l191 -24 0 -56 0 -56 -50 -6 c-143 -17 -253 -143 -267
-305 -10 -115 30 -218 115 -294 67 -61 158 -87 235 -69 l38 9 26 -51 c30 -61
75 -128 115 -175 l28 -33 0 -179 0 -180 -274 0 c-151 0 -310 -5 -352 -11 -394
-55 -668 -329 -723 -723 -7 -48 -11 -285 -11 -620 0 -587 1 -599 56 -708 36
-71 123 -159 193 -197 119 -63 75 -61 1179 -61 1087 0 1028 -3 1081 54 l24 26
204 0 204 0 37 -29 c83 -64 190 -68 275 -9 27 19 27 19 55 0 72 -51 154 -55
237 -13 57 29 59 29 84 12 78 -54 185 -54 264 1 27 19 27 19 55 0 84 -59 191
-55 274 9 l37 29 169 0 c205 0 242 9 305 80 64 71 81 145 55 234 -13 45 -105
146 -132 146 -14 0 -16 61 -16 586 0 431 -3 598 -12 628 -16 55 -99 138 -154
154 -29 8 -140 12 -363 12 -183 0 -321 4 -321 9 0 5 -25 41 -55 80 -104 132
-265 234 -445 282 -76 19 -116 22 -367 26 l-283 5 0 179 0 178 28 33 c40 47
85 114 115 175 l26 51 38 -9 c77 -18 168 8 235 69 84 76 125 179 115 294 -14
160 -125 288 -267 305 l-50 6 0 56 0 56 187 23 c488 59 739 146 769 267 10 40
-5 93 -36 128 -90 103 -438 188 -953 233 l-77 6 -32 62 c-48 89 -155 192 -253
243 -102 52 -189 79 -340 103 -138 23 -148 23 -270 4z m234 -160 c120 -17 260
-61 323 -100 126 -78 211 -213 254 -404 23 -99 73 -135 132 -94 36 25 42 55
27 120 -7 33 -13 59 -12 60 6 5 349 -39 447 -56 190 -34 380 -89 380 -110 0
-10 -121 -53 -205 -74 -328 -81 -804 -121 -1455 -121 -651 0 -1127 40 -1455
121 -84 21 -205 64 -205 74 0 21 219 83 405 115 82 14 418 55 422 51 1 -1 -5
-28 -13 -61 -16 -70 -12 -87 23 -115 60 -47 114 -12 137 90 43 191 128 326
254 404 61 38 201 82 312 99 123 19 107 19 229 1z m-109 -939 c179 0 414 4
523 8 l199 8 -5 -273 c-5 -309 -8 -325 -83 -478 -39 -77 -62 -109 -128 -175
-94 -93 -162 -135 -283 -178 -82 -29 -97 -31 -223 -31 -118 0 -145 4 -213 26
-236 78 -413 264 -483 507 -13 43 -18 117 -21 329 l-5 273 199 -8 c109 -4 344
-8 523 -8z m-880 -352 c0 -60 5 -137 10 -172 6 -35 8 -66 5 -69 -11 -12 -73
-4 -99 13 -69 46 -96 165 -54 245 25 49 77 90 114 90 24 0 24 -1 24 -107z
m1841 84 c19 -12 44 -42 57 -67 42 -80 15 -199 -54 -245 -26 -17 -88 -25 -99
-13 -3 3 -1 34 5 69 5 35 10 112 10 172 0 106 0 107 24 107 12 0 38 -10 57
-23z m-1185 -989 c64 -17 107 -21 224 -21 173 0 256 18 393 87 l87 44 0 -126
-1 -127 -233 -132 c-128 -73 -238 -133 -245 -133 -7 0 -118 60 -247 133 l-233
132 -1 127 0 126 88 -44 c49 -24 124 -54 168 -66z m-736 -558 c0 -256 -2 -290
-16 -290 -27 0 -119 -101 -132 -146 -7 -26 -12 -108 -12 -218 l0 -176 -361 0
-361 0 5 278 c3 249 6 284 26 352 67 224 233 394 444 455 92 26 142 33 280 34
l127 1 0 -290z m2215 265 c103 -28 215 -88 285 -154 l65 -60 -322 -1 -323 0 0
121 0 122 118 -6 c64 -3 144 -13 177 -22z m-1483 -176 c114 -66 217 -119 228
-119 11 0 114 53 228 119 114 65 217 123 230 130 l22 12 0 -91 c0 -77 -2 -90
-16 -90 -47 0 -102 -28 -149 -75 -57 -56 -75 -102 -75 -189 l0 -56 -360 0
-360 0 0 250 0 251 23 -12 c12 -7 115 -65 229 -130z m2683 -224 l25 -24 0
-576 0 -575 -111 0 c-106 0 -112 1 -147 29 -83 64 -190 68 -274 9 -28 -19 -28
-19 -55 0 -80 55 -186 55 -265 0 -28 -19 -28 -19 -55 0 -38 26 -89 42 -133 42
-44 0 -117 -24 -142 -47 -17 -15 -19 -15 -36 0 -25 23 -98 47 -142 47 -51 0
-98 -17 -142 -51 l-37 -29 -176 0 c-132 0 -177 3 -179 13 -3 6 -12 39 -22 71
-21 71 -83 142 -132 152 l-32 6 0 455 0 454 25 24 24 25 991 0 991 0 24 -25z
m-2215 -615 l0 -320 -78 0 -79 0 -6 118 c-7 143 -32 231 -82 289 -68 80 -178
95 -272 37 -63 -39 -105 -120 -139 -273 -13 -62 -32 -127 -40 -142 l-15 -29
-244 0 -245 0 0 295 0 296 25 24 24 25 576 0 575 0 0 -320z m-359 -30 c25 -34
39 -132 39 -278 0 -117 1 -124 25 -147 24 -25 25 -25 233 -25 167 0 212 -3
221 -14 19 -22 41 -145 41 -226 0 -81 -22 -204 -41 -226 -10 -12 -161 -14
-1008 -12 l-996 3 -50 25 c-64 31 -124 91 -155 155 -24 48 -25 58 -28 293 l-4
242 361 0 361 0 0 -95 c0 -88 2 -98 25 -120 l24 -25 311 0 c341 0 350 1 407
60 39 39 66 107 93 232 21 92 42 151 62 175 17 21 58 12 79 -17z m1294 -635
c24 -23 25 -31 25 -135 0 -104 -1 -112 -25 -135 -32 -33 -78 -33 -110 0 -24
23 -25 31 -25 135 0 104 1 112 25 135 15 16 36 25 55 25 19 0 40 -9 55 -25z
m320 0 c24 -23 25 -31 25 -135 0 -104 -1 -112 -25 -135 -32 -33 -78 -33 -110
0 -24 23 -25 31 -25 135 0 104 1 112 25 135 15 16 36 25 55 25 19 0 40 -9 55
-25z m320 0 c24 -23 25 -31 25 -135 0 -104 -1 -112 -25 -135 -32 -33 -78 -33
-110 0 -24 23 -25 31 -25 135 0 104 1 112 25 135 15 16 36 25 55 25 19 0 40
-9 55 -25z m320 0 c24 -23 25 -31 25 -135 0 -104 -1 -112 -25 -135 -32 -33
-78 -33 -110 0 -24 23 -25 31 -25 135 0 104 1 112 25 135 15 16 36 25 55 25
19 0 40 -9 55 -25z"/>
<path d="M3520 1587 c-49 -16 -133 -102 -148 -153 -28 -94 -8 -169 63 -239
102 -103 243 -101 338 5 93 103 90 228 -8 325 -70 71 -152 91 -245 62z"/>
</g>
</svg>
